<?xml version="1.0" standalone="no"?>
<!DOCTYPE svg PUBLIC "-//W3C//DTD SVG 20010904//EN"
 "http://www.w3.org/TR/2001/REC-SVG-20010904/DTD/svg10.dtd">
<svg version="1.0" xmlns="http://www.w3.org/2000/svg"
 width="256.000000pt" height="256.000000pt" viewBox="0 0 256.000000 256.000000"
 preserveAspectRatio="xMidYMid meet">

<g transform="translate(0.000000,256.000000) scale(0.100000,-0.100000)"
fill="#000000" stroke="none">
<path d="M730 2230 l-535 -309 -3 -515 -2 -516 40 0 40 0 0 488 0 487 502 290
c277 160 506 289 511 287 12 -4 980 -563 995 -575 9 -7 12 -71 12 -258 l0
-249 40 0 40 0 0 279 0 279 -539 311 c-296 171 -545 311 -552 311 -8 0 -255
-140 -549 -310z"/>
<path d="M835 2074 c-242 -140 -445 -262 -450 -271 -7 -12 -9 -164 -7 -430 l3
-413 30 0 29 0 0 403 0 404 420 242 420 242 420 -242 420 -243 0 -208 0 -208
30 0 30 0 -2 232 -3 232 -435 251 c-239 138 -442 254 -450 257 -10 4 -186 -92
-455 -248z"/>
<path d="M905 1922 l-360 -208 -3 -160 c-2 -87 0 -246 3 -351 7 -180 8 -193
26 -193 16 0 19 8 20 63 1 34 4 185 8 336 l6 274 335 194 c184 106 337 193
340 193 3 0 156 -87 340 -194 l335 -193 6 -174 c3 -96 6 -175 7 -176 1 -2 11
-3 21 -3 17 0 19 12 26 143 4 78 5 164 3 191 l-3 49 -360 208 c-198 115 -367
209 -375 209 -8 0 -177 -94 -375 -208z"/>
<path d="M988 1792 l-288 -167 0 -277 c0 -231 2 -278 14 -278 8 0 17 7 20 16
3 9 6 127 6 263 l0 248 270 156 270 155 270 -156 270 -156 0 -133 c0 -126 1
-133 20 -133 19 0 20 7 20 148 l0 147 -286 165 c-157 91 -288 166 -292 167 -4
1 -136 -73 -294 -165z"/>
<path d="M1068 1647 l-208 -121 0 -145 c0 -159 8 -251 21 -251 5 0 9 85 9 189
l0 188 195 113 195 112 195 -113 195 -113 0 -98 c0 -54 4 -98 9 -98 9 0 21 95
21 169 l0 47 -207 119 c-115 65 -210 119 -213 120 -3 1 -98 -52 -212 -118z"/>
<path d="M1140 1516 l-125 -73 -3 -104 c-2 -57 1 -115 5 -129 5 -16 10 17 13
98 l5 124 122 70 122 70 125 -72 126 -71 1 -67 c1 -60 2 -64 10 -34 6 19 9 52
7 74 -3 40 -3 40 -128 114 -69 40 -132 73 -140 73 -8 0 -71 -33 -140 -73z"/>
</g>
</svg>
